<svg width="53" height="61" viewBox="0 0 53 61" fill="none" xmlns="http://www.w3.org/2000/svg">
<path d="M10.5293 20.2848H42.4708V46.1943C42.4708 47.7335 41.2172 48.9814 39.6728 48.9814H36.4734V56.8722C36.4734 58.876 34.8677 60.5 32.8857 60.5C30.8986 60.5 29.2953 58.876 29.2953 56.8722V48.9814H23.7075V56.8722C23.7075 58.876 22.0987 60.5 20.1168 60.5C18.1352 60.5 16.5265 58.876 16.5265 56.8722V48.9814H13.3299C11.7852 48.9814 10.5291 47.7335 10.5291 46.1943L10.5293 20.2848ZM4.26983 20.0733C2.26762 20.0733 0.645813 21.7128 0.645813 23.7367V38.0541C0.645813 40.0757 2.26762 41.718 4.26983 41.718C6.2724 41.718 7.89385 40.0757 7.89385 38.0541V23.7367C7.89385 21.7128 6.2724 20.0733 4.26983 20.0733ZM42.471 17.6739H10.5293C10.9235 13.1442 13.8754 9.24618 18.1248 6.9892L15.0879 2.55038C14.6783 1.95178 14.8328 1.13503 15.4354 0.72748C16.0372 0.319927 16.8561 0.474917 17.2676 1.07304L20.5776 5.91437C22.4128 5.28266 24.4049 4.91996 26.5 4.91996C28.5977 4.91996 30.5899 5.28266 32.425 5.91519L35.735 1.0748C36.1415 0.475034 36.9629 0.320044 37.5647 0.727598C38.1673 1.13515 38.3218 1.9519 37.9122 2.55049L34.8778 6.98932C39.1271 9.24489 42.077 13.1429 42.471 17.6739ZM21.5299 11.519C21.5299 10.5476 20.7397 9.75976 19.7642 9.75976C18.7862 9.75976 17.996 10.5476 17.996 11.519C17.996 12.4899 18.7888 13.2775 19.7642 13.2775C20.7396 13.2775 21.5299 12.4899 21.5299 11.519ZM35.228 11.519C35.228 10.5476 34.4351 9.75976 33.4598 9.75976C32.4818 9.75976 31.694 10.5476 31.694 11.519C31.694 12.4899 32.4818 13.2775 33.4598 13.2775C34.4352 13.2775 35.228 12.4899 35.228 11.519ZM48.7327 20.0683C46.7327 20.0683 45.1062 21.7102 45.1062 23.7342V38.0567C45.1062 40.0808 46.7327 41.7232 48.7327 41.7232C50.7354 41.7232 52.3542 40.0809 52.3542 38.0567V23.7342C52.3543 21.7102 50.7354 20.0683 48.7327 20.0683Z" fill="#F5F5F5"/>
</svg>
