<svg width="51" height="61" viewBox="0 0 51 61" fill="none" xmlns="http://www.w3.org/2000/svg">
<path fill-rule="evenodd" clip-rule="evenodd" d="M34.7127 10.0787C36.9 7.54371 38.3743 4.01297 37.9709 0.5C34.8189 0.620001 31.0057 2.51346 28.7456 5.04545C26.7161 7.29244 24.9445 10.8828 25.4208 14.3268C28.9367 14.5878 32.5255 12.6167 34.7127 10.0787ZM42.5971 32.3753C42.6851 41.4563 50.9092 44.477 51.0002 44.516C50.9335 44.729 49.6867 48.8203 46.6682 53.0503C44.0563 56.7043 41.3473 60.3434 37.079 60.4215C32.8865 60.4965 31.5366 58.0396 26.7404 58.0396C21.9473 58.0396 20.4487 60.3432 16.4807 60.4962C12.3611 60.6432 9.22127 56.5428 6.59112 52.9009C1.20949 45.4519 -2.90106 31.8505 2.62012 22.6706C5.36251 18.1136 10.2618 15.2235 15.5828 15.1515C19.6266 15.0765 23.4459 17.7589 25.9183 17.7589C28.3907 17.7589 33.0321 14.5339 37.9102 15.0079C39.9518 15.0889 45.6853 15.7967 49.3651 20.9597C49.0678 21.1367 42.5243 24.7853 42.5971 32.3753Z" fill="#F5F5F5"/>
</svg>
