<svg width="59" height="61" viewBox="0 0 59 61" fill="none" xmlns="http://www.w3.org/2000/svg">
<path d="M33.6812 9.20496H3.29948C1.84978 9.20496 0.67038 10.3844 0.67038 11.8341V57.7825C0.67038 59.2322 1.84978 60.4116 3.29948 60.4116H33.6812C35.1309 60.4116 36.3103 59.2322 36.3103 57.7825V11.8343C36.3103 10.3844 35.1309 9.20496 33.6812 9.20496ZM30.1654 55.9057H6.81505C5.91019 55.9057 5.17646 55.172 5.17646 54.2671C5.17646 53.3623 5.91019 52.6285 6.81505 52.6285H30.1654C31.0703 52.6285 31.804 53.3623 31.804 54.2671C31.804 55.172 31.0703 55.9057 30.1654 55.9057ZM30.1654 48.1223H6.81505C5.91019 48.1223 5.17646 47.3885 5.17646 46.4837C5.17646 45.5788 5.91019 44.8451 6.81505 44.8451H30.1654C31.0703 44.8451 31.804 45.5788 31.804 46.4837C31.804 47.3885 31.0703 48.1223 30.1654 48.1223ZM30.1654 40.3388H6.81505C5.91019 40.3388 5.17646 39.6051 5.17646 38.7002C5.17646 37.7954 5.91019 37.0616 6.81505 37.0616H30.1654C31.0703 37.0616 31.804 37.7954 31.804 38.7002C31.804 39.6051 31.0703 40.3388 30.1654 40.3388ZM30.1654 32.5553H6.81505C5.91019 32.5553 5.17646 31.8216 5.17646 30.9167C5.17646 30.0119 5.91019 29.2782 6.81505 29.2782H30.1654C31.0703 29.2782 31.804 30.0119 31.804 30.9167C31.804 31.8216 31.0703 32.5553 30.1654 32.5553ZM30.1654 24.7719H6.81505C5.91019 24.7719 5.17646 24.0381 5.17646 23.1333C5.17646 22.2284 5.91019 21.4947 6.81505 21.4947H30.1654C31.0703 21.4947 31.804 22.2284 31.804 23.1333C31.804 24.0381 31.0703 24.7719 30.1654 24.7719ZM30.1654 16.9884H6.81505C5.91019 16.9884 5.17646 16.2547 5.17646 15.3498C5.17646 14.445 5.91019 13.7112 6.81505 13.7112H30.1654C31.0703 13.7112 31.804 14.445 31.804 15.3498C31.804 16.2547 31.0703 16.9884 30.1654 16.9884Z" fill="#F5F5F5"/>
<path d="M42.66 0.499878H11.0829C9.63302 0.499878 8.45383 1.67928 8.45383 3.12898V5.92778H33.6812C36.938 5.92778 39.5877 8.57728 39.5877 11.8343V52.6285H42.66C44.1097 52.6285 45.2891 51.4492 45.2891 49.9994V3.12898C45.2891 1.67928 44.1097 0.499878 42.66 0.499878Z" fill="#F5F5F5"/>
<path d="M58.3296 5.21181C58.3294 2.61382 56.4457 0.499878 54.1306 0.499878C51.8152 0.499878 49.9315 2.61382 49.9315 5.21181V7.95607H58.3296V5.21181Z" fill="#F5F5F5"/>
<path d="M49.9315 11.2334V54.5744C49.9315 54.8168 50.0006 55.0537 50.1301 55.2554L53.1445 59.9521C53.3641 60.2944 53.7342 60.5 54.1306 60.5C54.5267 60.5 54.897 60.2944 55.1166 59.9521L58.131 55.2554C58.2605 55.0537 58.3296 54.8168 58.3296 54.5744V11.2334H49.9315Z" fill="#F5F5F5"/>
</svg>
