<svg width="200" height="66" viewBox="0 0 200 66" fill="none" xmlns="http://www.w3.org/2000/svg">
<path d="M173.843 14.5531L183.968 30.8918H184.275L194.4 14.5531H200L187.65 34.1902L200 53.8274H194.4L184.275 37.7955H183.968L173.843 53.8274H168.243L180.9 34.1902L168.243 14.5531H173.843Z" fill="#F5F5F5"/>
<path d="M162.025 14.5531V53.8274H157.422L136.021 22.9909H135.637V53.8274H130.882V14.5531H135.484L156.962 45.4663H157.346V14.5531H162.025Z" fill="#F5F5F5"/>
<path d="M122.558 20.5126C122.558 19.3869 121.988 18.3413 121.05 17.7205L120.858 17.6023L98.2215 4.68013C97.2357 4.11737 96.0352 4.08203 95.0226 4.57446L94.8228 4.68013L72.1859 17.6023C71.1345 18.2026 70.4872 19.3121 70.4872 20.5126V46.3569C70.4872 47.5574 71.1345 48.6668 72.1859 49.2672L94.8228 62.1893C95.8743 62.7896 97.17 62.7896 98.2215 62.1893L120.858 49.2672C121.91 48.6668 122.558 47.5574 122.558 46.3569V20.5126ZM125.956 46.3569L125.952 46.5814C125.875 48.8956 124.595 51.0143 122.558 52.1774L99.9209 65.0996L99.7224 65.2085C97.723 66.2638 95.3213 66.2638 93.3219 65.2085L93.1234 65.0996L70.4866 52.1774C68.4493 51.0143 67.1698 48.8956 67.0918 46.5814L67.0885 46.3569V20.5126C67.0885 18.1864 68.304 16.0315 70.2921 14.8076L70.4866 14.6921L93.1234 1.76988C95.2266 0.5693 97.8178 0.5693 99.9209 1.76988L122.558 14.6921C124.661 15.8927 125.956 18.1115 125.956 20.5126V46.3569Z" fill="#F5F5F5"/>
<path d="M86.1313 18.5308L86.2602 18.8365L94.2026 37.69C94.5799 38.4577 94.9479 39.049 95.3022 39.4771C95.5829 39.7841 95.9703 39.9547 96.5229 39.9547C97.0359 39.9546 97.411 39.787 97.6977 39.4683L97.6987 39.4664L97.8413 39.3014C98.1696 38.8989 98.4849 38.37 98.7827 37.7037L106.785 18.8355L106.915 18.5308H111.69L111.384 19.231L102.743 39.024L102.742 39.023C102.047 40.6621 101.189 41.9329 100.15 42.7965L100.141 42.8043C99.6858 43.1652 99.1964 43.4465 98.6762 43.651V55.8541H94.2622V43.651C93.742 43.4465 93.2526 43.1652 92.7973 42.8043L92.7817 42.7906C91.7827 41.929 90.927 40.6622 90.1977 39.0269L90.1948 39.0211L81.6596 19.2291L81.3588 18.5308H86.1313Z" fill="#F5F5F5" stroke="#F5F5F5"/>
<path d="M98.1925 56.9193C98.1925 56.1699 97.585 55.5624 96.8356 55.5624C96.0862 55.5624 95.4787 56.1699 95.4787 56.9193C95.4787 57.6687 96.0862 58.2762 96.8356 58.2762V60.99C94.5874 60.99 92.7649 59.1675 92.7649 56.9193C92.7649 54.6711 94.5874 52.8486 96.8356 52.8486C99.0838 52.8486 100.906 54.6711 100.906 56.9193C100.906 59.1675 99.0838 60.99 96.8356 60.99V58.2762C97.585 58.2762 98.1925 57.6687 98.1925 56.9193Z" fill="#F5F5F5"/>
<path d="M84.4149 16.839C84.4149 16.0896 83.8074 15.4821 83.058 15.4821C82.3086 15.4821 81.7011 16.0896 81.7011 16.839C81.7011 17.5884 82.3086 18.1958 83.058 18.1958V20.9096C80.8098 20.9096 78.9873 19.0871 78.9873 16.839C78.9873 14.5908 80.8098 12.7683 83.058 12.7683C85.3061 12.7683 87.1286 14.5908 87.1286 16.839C87.1286 19.0871 85.3061 20.9096 83.058 20.9096V18.1958C83.8074 18.1958 84.4149 17.5884 84.4149 16.839Z" fill="#F5F5F5"/>
<path d="M111.344 16.839C111.344 16.0896 110.736 15.4821 109.987 15.4821C109.238 15.4821 108.63 16.0896 108.63 16.839C108.63 17.5884 109.238 18.1958 109.987 18.1958V20.9096C107.739 20.9096 105.916 19.0871 105.916 16.839C105.916 14.5908 107.739 12.7683 109.987 12.7683C112.235 12.7683 114.058 14.5908 114.058 16.839C114.058 19.0871 112.235 20.9096 109.987 20.9096V18.1958C110.736 18.1958 111.344 17.5884 111.344 16.839Z" fill="#F5F5F5"/>
<path d="M33.9767 18.772V14.5531H63.4325V18.772H51.0825V53.8274H46.3266V18.772H33.9767Z" fill="#F5F5F5"/>
<path d="M23.1657 24.3716C22.9356 22.4284 22.0023 20.9198 20.3659 19.8459C18.7295 18.772 16.7223 18.235 14.3443 18.235C12.6056 18.235 11.0843 18.5163 9.78023 19.0788C8.48899 19.6413 7.479 20.4148 6.75028 21.3992C6.03434 22.3836 5.67637 23.5023 5.67637 24.7552C5.67637 25.8035 5.92567 26.7048 6.42427 27.4591C6.93566 28.2006 7.58767 28.8207 8.38032 29.3193C9.17296 29.8051 10.004 30.2078 10.8733 30.5274C11.7427 30.8343 12.5417 31.0836 13.2704 31.2753L17.2592 32.3492C18.282 32.6177 19.4198 32.9885 20.6727 33.4615C21.9384 33.9345 23.1466 34.5802 24.2972 35.3984C25.4606 36.2038 26.4194 37.2394 27.1737 38.505C27.928 39.7707 28.3051 41.324 28.3051 43.165C28.3051 45.2873 27.749 47.205 26.6368 48.9181C25.5373 50.6312 23.9264 51.9928 21.8042 53.0028C19.6947 54.0128 17.1314 54.5178 14.1142 54.5178C11.3016 54.5178 8.86613 54.0639 6.80781 53.1562C4.76227 52.2485 3.15141 50.9828 1.97522 49.3592C0.811824 47.7355 0.153415 45.8498 0 43.702H4.90929C5.03714 45.185 5.53574 46.4123 6.40509 47.384C7.28723 48.3428 8.39949 49.0587 9.74188 49.5318C11.097 49.992 12.5545 50.2221 14.1142 50.2221C15.9296 50.2221 17.5597 49.9281 19.0043 49.34C20.449 48.7391 21.5932 47.9081 22.437 46.847C23.2808 45.7731 23.7027 44.5202 23.7027 43.0883C23.7027 41.7843 23.3383 40.7232 22.6096 39.905C21.8809 39.0867 20.922 38.4219 19.7331 37.9106C18.5441 37.3992 17.2592 36.9517 15.8785 36.5682L11.0459 35.1874C7.9776 34.3053 5.54852 33.046 3.75868 31.4096C1.96883 29.7731 1.07391 27.6317 1.07391 24.9853C1.07391 22.7864 1.66839 20.8687 2.85736 19.2322C4.05912 17.583 5.66998 16.3046 7.68995 15.3968C9.7227 14.4764 11.992 14.0161 14.4978 14.0161C17.0291 14.0161 19.2792 14.47 21.248 15.3777C23.2169 16.2726 24.7766 17.4999 25.9272 19.0596C27.0906 20.6194 27.7043 22.39 27.7682 24.3716H23.1657Z" fill="#F5F5F5"/>
</svg>
