<svg width="58" height="47" viewBox="0 0 58 47" fill="none" xmlns="http://www.w3.org/2000/svg">
<path d="M24.4532 0.699951C9.29481 0.699951 0.200012 12.8596 0.200012 18.94C0.200012 25.0204 3.23121 29.5804 9.29481 29.5804C15.3584 29.5804 18.3908 31.0996 18.3908 35.6596C18.3908 41.7388 22.9376 46.2988 29.0012 46.2988C48.7076 46.2988 57.8012 35.6596 57.8012 25.0204C57.8 6.78035 42.6392 0.699951 24.4532 0.699951ZM20.6636 6.78035C22.7564 6.78035 24.4532 8.48195 24.4532 10.5796C24.4532 12.6796 22.7564 14.38 20.6636 14.38C18.5708 14.38 16.874 12.6784 16.874 10.5796C16.874 8.48195 18.5708 6.78035 20.6636 6.78035ZM32.7884 6.78035C34.8812 6.78035 36.578 8.48195 36.578 10.5796C36.578 12.6796 34.8812 14.38 32.7884 14.38C30.6968 14.38 29 12.6784 29 10.5796C29 8.48195 30.6968 6.78035 32.7884 6.78035ZM44.9156 12.8596C47.0096 12.8596 48.7064 14.56 48.7064 16.66C48.7064 18.76 47.0096 20.4592 44.9156 20.4592C42.8228 20.4592 41.1272 18.7588 41.1272 16.66C41.126 14.5612 42.8228 12.8596 44.9156 12.8596ZM10.0532 15.9004C12.146 15.9004 13.8416 17.6008 13.8416 19.6984C13.8416 21.7984 12.1448 23.4988 10.0532 23.4988C7.96161 23.4988 6.26361 21.7972 6.26361 19.6984C6.26361 17.6008 7.96041 15.9004 10.0532 15.9004ZM29 31.0996C31.5116 31.0996 33.5468 33.1395 33.5468 35.6608C33.5468 38.1784 31.5116 40.2196 29 40.2196C26.4884 40.2196 24.4532 38.1784 24.4532 35.6608C24.4532 33.1395 26.4884 31.0996 29 31.0996Z" fill="#F5F5F5"/>
</svg>
