<svg width="61" height="60" viewBox="0 0 61 60" fill="none" xmlns="http://www.w3.org/2000/svg">
<path d="M60.4078 32.32C60.8249 27.0073 59.8213 21.6792 57.5005 16.885C53.6589 20.5452 49.1178 23.3872 44.1511 25.2396C44.5505 30.1553 44.3293 35.1018 43.4928 39.9619C49.5366 38.4355 55.2634 35.8483 60.4078 32.32ZM38.6041 40.9523C39.5867 36.2413 39.9303 31.4188 39.6255 26.6156C36.6966 27.3159 33.6415 27.6861 30.5003 27.6861C27.3591 27.6861 24.3041 27.3159 21.3752 26.6156C21.0775 31.4188 21.421 36.2403 22.3966 40.9523C27.7677 41.7779 33.2329 41.7779 38.6041 40.9523ZM23.6457 45.7929C28.1996 46.3332 32.8011 46.3332 37.355 45.7929C35.7899 50.8451 33.4794 55.6338 30.5003 60C27.5212 55.6339 25.2107 50.8451 23.6457 45.7929ZM17.5079 39.965C16.6669 35.1033 16.4456 30.1542 16.8495 25.2365C11.8817 23.3846 7.33951 20.5426 3.4971 16.8819C1.17679 21.6773 0.174214 27.0065 0.5928 32.32C5.73729 35.8483 11.464 38.4386 17.5079 39.965ZM59.2849 38.4903C57.7315 43.7688 54.7659 48.5198 50.71 52.2275C46.6541 55.9352 41.6629 58.4579 36.2782 59.5218C38.9748 54.9751 41.033 50.077 42.3944 44.9661C48.3307 43.7184 54.0318 41.5337 59.2849 38.4934V38.4903ZM1.71576 38.4903C6.89058 41.486 12.5761 43.6981 18.6062 44.9661C19.9676 50.077 22.0258 54.9751 24.7225 59.5218C19.3381 58.4581 14.3471 55.9359 10.2913 52.2288C6.23539 48.5217 3.26959 43.7713 1.71576 38.4934V38.4903ZM36.2782 0.475113C43.9011 1.97761 50.646 6.38574 55.0946 12.7725C51.8108 16.0995 47.8908 18.7271 43.5697 20.4977C42.4054 13.426 39.9324 6.63504 36.2782 0.475113ZM30.5003 0C34.9903 6.57784 37.9404 14.0879 39.1301 21.9694C36.3704 22.6789 33.4785 23.0584 30.5003 23.0584C27.5222 23.0584 24.6302 22.682 21.8705 21.9694C23.0602 14.0879 26.0102 6.57779 30.5003 0ZM24.7225 0.475113C21.0682 6.63501 18.5952 13.426 17.431 20.4977C13.1098 18.7272 9.18975 16.0995 5.90607 12.7725C10.3549 6.38667 17.0999 1.97653 24.7225 0.475113Z" fill="#F5F5F5"/>
</svg>
